<!DOCTYPE svg PUBLIC "-//W3C//DTD SVG 1.1//EN" "http://www.w3.org/Graphics/SVG/1.1/DTD/svg11.dtd">
<!-- Uploaded to: SVG Repo, www.svgrepo.com, Transformed by: SVG Repo Mixer Tools -->
<svg fill="#000000" version="1.1" id="Capa_1" xmlns="http://www.w3.org/2000/svg" xmlns:xlink="http://www.w3.org/1999/xlink" width="800px" height="800px" viewBox="0 0 574.82 574.821" xml:space="preserve">
<g id="SVGRepo_bgCarrier" stroke-width="0"/>
<g id="SVGRepo_tracerCarrier" stroke-linecap="round" stroke-linejoin="round"/>
<g id="SVGRepo_iconCarrier"> <g> <path d="M568.412,405.795c-15.301-27.234-52.021-11.016-71.91,0.306c-0.918,0.612-1.836,1.53-2.143,2.143 c-44.369-49.878-97.002-91.188-149.939-132.498c41.922-53.244,88.434-100.98,136.781-148.41c5.203-5.202-2.447-12.546-7.955-7.956 c-50.797,41.922-99.756,94.86-135.865,151.164c-10.709-8.262-21.42-16.83-32.129-25.398c24.479-19.278,44.369-45.594,64.871-69.156 c14.688-16.83,29.682-33.66,44.982-50.184c12.24-13.158,28.152-24.48,38.557-38.862c2.141-3.06-1.531-7.956-4.896-6.426 c-0.307,0.306-0.918,0.306-1.225,0.612c-12.24-3.06-37.332-11.016-32.129-25.398c4.895-13.158,24.174-21.42,36.107-25.398 c11.322-3.978,31.824-10.098,42.533-1.224c14.994,12.24-8.873,43.452-15.605,53.244c-3.365,4.896,3.061,10.404,7.957,7.956 c14.992-8.262,48.348-28.152,64.871-12.546c11.629,11.016,6.426,33.354,2.447,46.512c-6.119,20.502-38.555,82.008-57.834,40.086 c-3.672-7.956-5.508-16.83-7.037-25.398c-1.529-7.344-12.547-4.284-11.322,3.06c2.754,16.83,9.18,45.288,29.988,48.654 c16.523,2.754,29.988-12.24,38.557-24.174c16.83-23.562,39.779-79.254,8.566-100.674c-15.299-10.71-37.025-4.284-54.773,3.978 c8.262-14.688,14.688-32.13,5.508-44.982c-9.791-14.076-31.211-11.934-45.9-8.568c-17.441,3.978-36.414,12.546-48.348,26.01 c-11.322,12.852-8.568,28.152,6.121,36.72c6.426,3.672,13.463,5.508,20.807,7.038c-27.539,16.83-51.408,52.938-70.686,75.582 c-22.338,26.01-43.451,54.774-66.707,80.172c-60.283-48.348-117.811-98.532-160.651-163.71c0.918,0,2.142-0.306,3.06-0.918 c12.852-10.098,23.256-29.376,17.442-45.9c-4.896-13.464-18.972-20.808-32.436-22.95c-15.3-2.448-31.212,1.224-42.84,11.628 c-12.24,10.71-14.994,26.928-13.77,42.228C57.085,54.202,39.949,49,25.261,58.18C10.879,66.748,7.208,85.414,9.35,100.713 c2.448,16.524,12.24,31.824,28.152,38.25c20.196,8.262,42.534-2.448,59.364-14.382c54.468,54.774,109.548,108.63,164.628,162.486 c-32.13,12.546-60.894,45.9-84.15,69.156c-30.6,30.601-59.976,64.261-84.762,100.062c-9.486-18.972-24.48-40.698-47.43-38.862 c-19.584,1.53-33.048,20.196-39.78,36.72c-6.732,16.219-8.874,38.25,3.978,52.326c14.076,14.994,37.026,9.486,55.692,1.225 c-6.426,15.3-9.18,32.13,1.836,46.206c11.016,14.075,33.048,14.688,49.266,12.239c17.442-2.754,36.414-12.239,45.288-28.151 c10.71-19.584-2.448-40.698-17.748-53.55c-0.612-0.612-1.53-0.918-2.142-1.225c63.036-35.189,110.772-96.696,162.486-145.35 c5.814-5.508-2.754-13.771-8.568-8.568c-58.751,52.938-106.488,114.444-174.726,156.061c-3.978,2.447-0.612,8.262,3.672,6.426 c3.06-1.225,5.814-2.754,8.874-4.284c-0.612,1.836-0.306,3.672,1.53,5.508c10.71,10.099,23.256,24.174,14.994,39.78 c-6.732,12.546-22.644,18.666-35.802,21.42c-12.24,2.448-27.846,2.142-37.332-7.038c-13.464-13.158-0.612-37.026,6.732-49.572 c3.06-5.201-3.06-11.016-8.262-8.262c-14.076,7.956-42.84,23.562-58.14,9.18c-10.71-10.098-7.038-29.376-2.754-41.615 c4.896-13.771,15.3-28.765,30.294-31.824c20.196-4.284,35.496,18.36,44.676,35.189c-0.918,1.53-2.142,3.061-3.366,4.591 c-2.754,4.283,3.672,7.649,6.426,3.672c0.306-0.307,0.612-0.612,0.612-0.918c1.224,2.142,3.978,0.306,3.06-1.836 c-0.306-0.307-0.306-0.918-0.612-1.225c25.398-32.742,52.938-63.342,82.008-92.718c28.152-28.764,60.588-51.102,90.27-77.724 c55.08,53.855,110.16,107.712,164.322,162.485c-25.398,17.442-45.9,54.162-16.219,78.336c10.404,8.568,24.174,10.099,36.109,3.979 c11.627-5.814,17.748-18.054,21.113-30.601c9.486,17.442,24.174,33.049,45.594,26.316c23.562-7.344,37.639-35.189,45.9-56.304 C573.613,456.591,580.346,427.215,568.412,405.795z M554.947,471.28c-6.426,18.666-17.748,40.086-35.496,49.878 c-21.727,11.934-36.107-18.666-41.922-34.272c-2.447-6.731-11.016-5.202-11.934,1.53c-2.449,20.502-18.666,57.834-44.064,35.802 c-22.949-20.195-3.061-48.348,14.994-64.26c1.529,1.53,2.754,2.754,4.283,4.284c4.285,4.59,10.1-2.143,6.732-6.732 c-97.613-125.766-226.134-232.254-344.556-337.824c2.142-2.142-0.918-6.12-3.672-4.284c-0.306,0.306-0.612,0.306-0.612,0.612 c-0.306-0.306-0.612-0.306-0.612-0.612c-3.366-3.06-7.956,1.224-5.814,4.59c-14.994,8.874-32.742,16.218-49.266,10.098 c-12.546-4.59-19.278-17.136-21.726-29.682c-2.142-10.404,0-24.48,8.874-31.212c14.076-10.71,33.966,1.53,45.9,9.792 c4.59,3.06,9.486-1.836,8.568-6.732c-3.366-14.994-3.672-31.518,7.65-43.146c8.262-8.874,21.42-11.016,33.048-10.098 c10.098,0.918,20.196,6.12,24.786,15.3c6.732,13.464-7.344,27.234-14.688,37.026c0,0,0,0.306-0.306,0.306 c-1.836-0.918-4.59,0.918-3.366,3.366c47.124,85.986,122.094,146.88,198.288,206.856l-0.307,0.306 c-2.447,3.978,3.061,7.038,6.121,4.284c54.162,42.228,108.324,84.456,153.307,134.64c3.977,4.284,9.484,0.612,10.098-3.978 c0.918,0,1.836-0.307,2.754-0.612c14.688-8.262,44.676-24.174,56.303-3.366C568.105,429.664,560.762,454.755,554.947,471.28z"/> </g> </g>
</svg>